<?xml version="1.0" encoding="iso-8859-1"?>
<!-- Generator: Adobe Illustrator 24.2.1, SVG Export Plug-In . SVG Version: 6.00 Build 0)  -->
<svg version="1.1" id="Layer_1" xmlns="http://www.w3.org/2000/svg" xmlns:xlink="http://www.w3.org/1999/xlink" x="0px" y="0px"
	 viewBox="0 0 48 48" style="enable-background:new 0 0 48 48;" xml:space="preserve">
<g>
	<path style="fill:#1565C0;" d="M10,12l3,25l-8.019-8.019c-1.189-1.189-1.508-2.996-0.796-4.52L10,12z"/>
	<g>
		<path style="fill:#42A5F5;" d="M27.319,6.319C26.474,5.474,25.329,5,24.135,5c-0.745,0-1.479,0.185-2.135,0.538L10,12v20.343
			c0,1.061,0.421,2.078,1.172,2.828L13,37h22v-5l7-11L27.319,6.319z"/>
	</g>
	<path style="fill:#1565C0;" d="M10,12h21.343c1.061,0,2.078,0.421,2.828,1.172L42,21v16h-7L10,12z"/>
	<polygon style="fill:#85CBF8;" points="35,37 13,37 19,43 35,43 	"/>
</g>
</svg>