<?xml version="1.0" encoding="iso-8859-1"?>
<!-- Generator: Adobe Illustrator 24.0.0, SVG Export Plug-In . SVG Version: 6.00 Build 0)  -->
<svg version="1.1" id="Layer_1" xmlns="http://www.w3.org/2000/svg" xmlns:xlink="http://www.w3.org/1999/xlink" x="0px" y="0px"
	 viewBox="0 0 48 48" style="enable-background:new 0 0 48 48;" xml:space="preserve">
<polygon style="fill:#0D91D6;" points="24,6 17.99,12.35 11.97,18.69 6,25 6,6 "/>
<polygon style="fill:#F88909;" points="24,6 23.96,6 17.97,12.33 11.96,18.68 6,24.97 6,25 6,25.09 6,42 14.69,33.31 20.87,27.13 
	27.06,20.94 33.25,14.75 42,6 "/>
<polygon style="fill:#C757BC;" points="14.69,33.31 6,42 6,25.09 "/>
<polygon style="fill:#D3638F;" points="20.87,27.13 14.69,33.31 6,25.09 6,25 11.97,18.69 "/>
<polygon style="fill:#E07063;" points="27.06,20.94 20.87,27.13 11.97,18.69 17.99,12.35 "/>
<polygon style="fill:#EC7D36;" points="33.25,14.75 27.06,20.94 17.99,12.35 24,6 "/>
<polygon style="fill:#F88909;" points="42,6 33.25,14.75 24,6 "/>
<polygon style="fill:#0095D5;" points="11.51,19.15 7.99,22.88 6,21 6,13.94 "/>
<polygon style="fill:#2B88DA;" points="15.03,15.42 11.51,19.15 6,13.94 6,6.87 "/>
<polygon style="fill:#557BDE;" points="18.56,11.7 15.03,15.42 6,6.87 6,6 12.53,6 "/>
<polygon style="fill:#806EE3;" points="22.08,7.97 18.56,11.7 12.53,6 24,6 "/>
<polygon style="fill:#0095D5;" points="23,25 6,42 9.35,42 17.52,42 40,42 "/>
<polygon style="fill:#2B88DA;" points="25.68,42 17.52,42 11.76,36.25 15.84,32.17 "/>
<polygon style="fill:#557BDE;" points="33.86,42 25.68,42 15.84,32.17 19.92,28.09 "/>
<polygon style="fill:#806EE3;" points="42,42 33.86,42 19.92,28.09 24,24 "/>
</svg>